<svg width="30" height="30" viewBox="0 0 30 30" fill="none" xmlns="http://www.w3.org/2000/svg">
<g clip-path="url(#clip0_35_358)">
<path d="M20.6875 16.25C21.625 16.25 22.45 15.7375 22.875 14.9625L27.35 6.85C27.8125 6.025 27.2125 5 26.2625 5H7.7625L6.5875 2.5H2.5V5H5L9.5 14.4875L7.8125 17.5375C6.9 19.2125 8.1 21.25 10 21.25H25V18.75H10L11.375 16.25H20.6875ZM8.95 7.5H24.1375L20.6875 13.75H11.9125L8.95 7.5ZM10 22.5C8.625 22.5 7.5125 23.625 7.5125 25C7.5125 26.375 8.625 27.5 10 27.5C11.375 27.5 12.5 26.375 12.5 25C12.5 23.625 11.375 22.5 10 22.5ZM22.5 22.5C21.125 22.5 20.0125 23.625 20.0125 25C20.0125 26.375 21.125 27.5 22.5 27.5C23.875 27.5 25 26.375 25 25C25 23.625 23.875 22.5 22.5 22.5Z" fill="white"/>
</g>
<defs>
<clipPath id="clip0_35_358">
<rect width="30" height="30" fill="white"/>
</clipPath>
</defs>
</svg>
