<svg width="50" height="50" viewBox="0 0 50 50" fill="none" xmlns="http://www.w3.org/2000/svg">
<g clip-path="url(#clip0_48_18)">
<path d="M24.575 47.2251C24.3607 47.0251 23.625 45.4251 22.2375 42.1626L20.2125 37.3769H14.1875C10.7 37.3769 7.875 37.3269 7.4875 37.2519C6.4875 37.0644 5.1375 36.3519 4.4125 35.6269C3.675 34.8894 2.9625 33.6019 2.7625 32.6519C2.6625 32.2019 2.625 28.7269 2.625 21.5894C2.625 12.6394 2.65 11.0769 2.8125 10.4394C3.4125 8.1394 5.325 6.3769 7.625 6.0144C8.75 5.8269 41.2625 5.8269 42.375 6.0144C44.6125 6.3644 46.4625 7.9644 47.125 10.0894C47.3625 10.8769 47.375 11.2394 47.375 21.5537C47.375 28.268 47.325 32.3912 47.2375 32.7412C46.9 34.2287 45.625 35.8787 44.2732 36.6037C42.8857 37.3412 42.5482 37.3787 35.9232 37.3787H29.9125L27.8875 42.1644C26.7625 44.7894 25.7625 47.0269 25.65 47.1394C25.275 47.5126 24.925 47.5376 24.575 47.2251ZM40.125 30.1894C40.5 29.9751 40.9875 29.5769 41.2125 29.2769C41.95 28.3019 41.9982 27.9394 41.9982 23.1019V18.7501H39.3732V19.5358L39.0982 19.2858C38.4107 18.6608 37.4857 18.4483 36.4232 18.6608C34.4232 19.0733 33.3732 20.4983 33.3732 22.7983C33.3732 24.7233 33.8982 25.6858 35.3232 26.3858C35.9607 26.6983 36.2857 26.7858 36.8482 26.7858C37.7482 26.7733 38.4982 26.5733 38.9357 26.2233L39.2857 25.9483L39.2 26.5001C39.025 27.5876 38.45 28.1251 37.45 28.1251H36.875V30.6501L38.1607 30.6001C39.2875 30.5626 39.5125 30.5126 40.125 30.1876V30.1894ZM14.7 26.3501C15.4125 26.0251 16.1 25.3251 16.425 24.6376C16.775 23.8501 16.7875 21.9876 16.45 21.0126C16.2 20.2751 15.4375 19.3501 14.825 19.0251C13.55 18.3626 11.925 18.4751 11.0393 19.2876L10.7518 19.5376V15.3751H8L8.025 20.9108L8.0625 26.4358L9.4125 26.4715C10.6875 26.509 10.75 26.4965 10.75 26.2465C10.75 25.934 10.7875 25.934 11.3625 26.309C12.2375 26.9001 13.5125 26.9126 14.7 26.3501ZM29.3375 26.4751C30.1 26.2001 31.1375 25.3126 31.55 24.5751C32.9125 22.2001 31.3625 19.3251 28.4125 18.7501C26.5625 18.3876 24.5625 19.2858 23.6875 20.8876C23.4125 21.4126 23.3125 21.7626 23.275 22.5126C23.225 23.3501 23.2625 23.5483 23.5607 24.2251C23.925 25.0376 24.75 25.9251 25.5 26.3126C26.5875 26.8751 28.0875 26.9376 29.3375 26.4751ZM21.475 22.2144L21.4393 17.9394L21.025 17.1001C20.45 15.9376 19.5375 15.3126 18.0375 15.0626L17.5 14.9751V16.3626C17.5 17.5501 17.525 17.7501 17.7 17.7501C17.8125 17.7501 18.0875 17.9376 18.325 18.1751L18.75 18.6001V26.5001H21.5125L21.475 22.2144Z" fill="#888888"/>
<path d="M37.1625 24.1876C36.3375 23.8376 36.0125 22.7126 36.5 21.9126C37.175 20.8001 38.75 20.9001 39.275 22.0876C39.6625 22.9751 39.275 23.8876 38.3375 24.2376C37.875 24.4126 37.65 24.4001 37.1625 24.1876Z" fill="#888888"/>
<path d="M11.525 24.0501C10.6 23.4126 10.7 21.9126 11.7 21.4376C13.075 20.7876 14.3875 22.1519 13.6875 23.5001C13.3375 24.1876 12.15 24.4876 11.525 24.0501Z" fill="#888888"/>
<path d="M26.7875 24.125C26.6014 24.0136 26.44 23.8653 26.3132 23.6893C26.1864 23.5133 26.0968 23.3133 26.05 23.1015C26.0032 22.8897 26.0001 22.6705 26.041 22.4575C26.0818 22.2445 26.1657 22.042 26.2875 21.8625C26.65 21.3268 27.0375 21.125 27.7375 21.125C28.2018 21.125 28.35 21.1875 28.7625 21.6125C29.175 22.025 29.25 22.175 29.25 22.6375C29.25 23.975 27.8875 24.8 26.7875 24.125Z" fill="#888888"/>
</g>
<defs>
<clipPath id="clip0_48_18">
<rect width="50" height="50" fill="white"/>
</clipPath>
</defs>
</svg>
