<svg width="30" height="30" viewBox="0 0 30 30" fill="none" xmlns="http://www.w3.org/2000/svg">
<g clip-path="url(#clip0_35_355)">
<path d="M15 5.46875C16.8125 5.46875 18.2812 6.9375 18.2812 8.75C18.2812 10.5625 16.8125 12.0312 15 12.0312C13.1875 12.0312 11.7187 10.5625 11.7187 8.75C11.7187 6.9375 13.1875 5.46875 15 5.46875ZM15 19.5312C19.6406 19.5312 24.5312 21.8125 24.5312 22.8125V24.5312H5.46875V22.8125C5.46875 21.8125 10.3594 19.5312 15 19.5312ZM15 2.5C11.5469 2.5 8.75 5.29687 8.75 8.75C8.75 12.2031 11.5469 15 15 15C18.4531 15 21.25 12.2031 21.25 8.75C21.25 5.29687 18.4531 2.5 15 2.5ZM15 16.5625C10.8281 16.5625 2.5 18.6562 2.5 22.8125V27.5H27.5V22.8125C27.5 18.6562 19.1719 16.5625 15 16.5625Z" fill="white"/>
</g>
<defs>
<clipPath id="clip0_35_355">
<rect width="30" height="30" fill="white"/>
</clipPath>
</defs>
</svg>
