<svg width="30" height="30" viewBox="0 0 30 30" fill="none" xmlns="http://www.w3.org/2000/svg">
<g clip-path="url(#clip0_35_352)">
<path d="M20.3674 18.2233H19.2381L18.8379 17.8373C20.2387 16.2078 21.082 14.0923 21.082 11.791C21.082 6.65952 16.9225 2.5 11.791 2.5C6.65952 2.5 2.5 6.65952 2.5 11.791C2.5 16.9225 6.65952 21.082 11.791 21.082C14.0923 21.082 16.2078 20.2387 17.8373 18.8379L18.2233 19.2381V20.3674L25.3702 27.5L27.5 25.3702L20.3674 18.2233ZM11.791 18.2233C8.23185 18.2233 5.35878 15.3502 5.35878 11.791C5.35878 8.23185 8.23185 5.35878 11.791 5.35878C15.3502 5.35878 18.2233 8.23185 18.2233 11.791C18.2233 15.3502 15.3502 18.2233 11.791 18.2233Z" fill="white"/>
</g>
<defs>
<clipPath id="clip0_35_352">
<rect width="30" height="30" fill="white"/>
</clipPath>
</defs>
</svg>
